<mxfile host="app.diagrams.net" modified="2022-06-24T04:56:35.931Z" agent="5.0 (Macintosh; Intel Mac OS X 10_15_7) AppleWebKit/537.36 (KHTML, like Gecko) Chrome/102.0.0.0 Safari/537.36" etag="qN0oCTTeZHvYttHU_BHx" version="20.0.3" type="github">
  <diagram id="vuUQ8bP5sddqCmHipAIj" name="第 1 页">
    <mxGraphModel dx="850" dy="500" grid="1" gridSize="10" guides="1" tooltips="1" connect="1" arrows="1" fold="1" page="1" pageScale="1" pageWidth="827" pageHeight="1169" math="0" shadow="0">
      <root>
        <mxCell id="0" />
        <mxCell id="1" parent="0" />
        <mxCell id="NUIzydp3JmrpvSLanspx-16" value="" style="edgeStyle=orthogonalEdgeStyle;rounded=0;orthogonalLoop=1;jettySize=auto;html=1;" edge="1" parent="1" source="NUIzydp3JmrpvSLanspx-14" target="NUIzydp3JmrpvSLanspx-15">
          <mxGeometry relative="1" as="geometry" />
        </mxCell>
        <mxCell id="NUIzydp3JmrpvSLanspx-17" value="" style="edgeStyle=orthogonalEdgeStyle;rounded=0;orthogonalLoop=1;jettySize=auto;html=1;" edge="1" parent="1" source="NUIzydp3JmrpvSLanspx-14" target="NUIzydp3JmrpvSLanspx-15">
          <mxGeometry relative="1" as="geometry" />
        </mxCell>
        <mxCell id="NUIzydp3JmrpvSLanspx-19" value="" style="edgeStyle=orthogonalEdgeStyle;rounded=0;orthogonalLoop=1;jettySize=auto;html=1;" edge="1" parent="1" source="NUIzydp3JmrpvSLanspx-14">
          <mxGeometry relative="1" as="geometry">
            <mxPoint x="250" y="320" as="targetPoint" />
          </mxGeometry>
        </mxCell>
        <mxCell id="NUIzydp3JmrpvSLanspx-14" value="分布式代码搜索引擎系统" style="rounded=0;whiteSpace=wrap;html=1;" vertex="1" parent="1">
          <mxGeometry x="110" y="370" width="40" height="110" as="geometry" />
        </mxCell>
        <mxCell id="NUIzydp3JmrpvSLanspx-15" value="" style="whiteSpace=wrap;html=1;rounded=0;" vertex="1" parent="1">
          <mxGeometry x="190" y="395" width="120" height="60" as="geometry" />
        </mxCell>
      </root>
    </mxGraphModel>
  </diagram>
</mxfile>
